2.2Hzlow3min_grf.mot
version=1
nRows=17
nColumns 19
inDegrees=yes
endheader
time	1_ground_force_vx	1_ground_force_vy	1_ground_force_vz	1_ground_force_px	1_ground_force_py	1_ground_force_pz	1_ground_torque_x	1_ground_torque_y	1_ground_torque_z	2_ground_force_vx	2_ground_force_vy	2_ground_force_vz	2_ground_force_px	2_ground_force_py	2_ground_force_pz	2_ground_torque_x	2_ground_torque_y	2_ground_torque_z
            2.502500	           -0.365547	           -4.687568	            0.118381	           -0.233013	            0.005581	           -0.255695	           -0.434975	           -0.008928	           -0.146016	            0.235599	           -0.367618	            0.045514	           -0.232311	            0.006130	           -0.833667	           -0.413260	           -0.010810	           -0.037558
            2.503000	           -0.319263	           -5.228946	            0.253516	           -0.233013	            0.005581	           -0.255695	           -0.421993	           -0.026902	           -0.256940	           -0.090377	           -0.921080	           -0.003245	           -0.232311	            0.006130	           -0.833667	           -0.469403	           -0.067797	           -0.018887
            2.503500	           -0.182354	           -4.326805	            0.073616	           -0.233013	            0.005581	           -0.255695	           -0.527172	           -0.082649	           -0.175894	           -0.042698	           -1.106398	            0.371502	           -0.232311	            0.006130	           -0.833667	           -0.356683	           -0.067458	           -0.000084
            2.504000	           -0.274837	           -4.325446	           -0.247148	           -0.233013	            0.005581	           -0.255695	           -0.457709	            0.010632	           -0.386355	           -0.041492	           -1.473690	            0.088620	           -0.232311	            0.006130	           -0.833667	           -0.375451	           -0.076844	           -0.037810
            2.504500	           -0.136982	           -4.866610	           -0.158096	           -0.233013	            0.005581	           -0.255695	           -0.441797	            0.074196	           -0.098267	            0.006749	           -1.842320	            0.228070	           -0.232311	            0.006130	           -0.833667	           -0.431551	           -0.143351	           -0.000322
            2.505000	            0.000514	           -4.686318	           -0.157665	           -0.233013	            0.005581	           -0.255695	           -0.498410	            0.120788	           -0.167261	            0.101778	           -2.210278	            0.226716	           -0.232311	            0.006130	           -0.833667	           -0.431849	           -0.067527	           -0.056603
            2.505500	           -0.365709	           -5.047706	            0.025123	           -0.233013	            0.005581	           -0.255695	           -0.449722	            0.120635	           -0.183008	            0.331958	           -1.103873	            0.042846	           -0.232311	            0.006130	           -0.833667	           -0.394278	           -0.067392	           -0.056619
            2.506000	           -0.274220	           -3.966095	            0.029533	           -0.233013	            0.005581	           -0.255695	           -0.469154	           -0.017977	           -0.179683	            0.052249	           -1.473687	            0.182436	           -0.232311	            0.006130	           -0.833667	           -0.413124	           -0.048621	           -0.037693
            2.506500	           -0.273975	           -4.687354	            0.072297	           -0.233013	            0.005581	           -0.255695	           -0.395551	           -0.054935	           -0.179998	           -0.225527	           -2.395443	            0.179270	           -0.232311	            0.006130	           -0.833667	           -0.375552	           -0.057669	           -0.113144
            2.507000	           -0.273534	           -5.228741	            0.207546	           -0.233013	            0.005581	           -0.255695	           -0.457473	           -0.082511	           -0.217540	           -0.038833	           -2.210284	            0.085991	           -0.232311	            0.006130	           -0.833667	           -0.413158	           -0.039169	           -0.037660
            2.507500	           -0.366523	           -4.325464	           -0.246920	           -0.233013	            0.005581	           -0.255695	           -0.382392	           -0.017529	           -0.296581	            0.052187	           -1.473185	            0.041652	           -0.232311	            0.006130	           -0.833667	           -0.375460	           -0.067593	            0.018774
            2.508000	            0.046962	           -6.129024	           -0.026395	           -0.233013	            0.005581	           -0.255695	           -0.465744	            0.074522	           -0.146736	            0.238984	           -1.288862	            0.183013	           -0.232311	            0.006130	           -0.833667	           -0.394158	           -0.105068	           -0.094454
            2.508500	           -0.320680	           -4.325455	           -0.247034	           -0.233013	            0.005581	           -0.255695	           -0.494756	            0.074421	           -0.181165	           -0.038792	           -2.210619	            0.179848	           -0.232311	            0.006130	           -0.833667	           -0.450558	           -0.086568	           -0.037812
            2.509000	            0.000610	           -3.965648	           -0.062861	           -0.233013	            0.005581	           -0.255695	           -0.446599	            0.074826	           -0.224007	            0.145243	           -1.288866	            0.089197	           -0.232311	            0.006130	           -0.833667	           -0.469352	           -0.086568	           -0.056654
            2.509500	           -0.319686	           -5.408425	            0.069319	           -0.233013	            0.005581	           -0.255695	           -0.489054	           -0.008596	           -0.219093	           -0.039498	           -2.026135	            0.086648	           -0.232311	            0.006130	           -0.833667	           -0.488240	           -0.049094	            0.018889
            2.510000	           -0.273891	           -5.768751	            0.021804	           -0.233013	            0.005581	           -0.255695	           -0.468085	           -0.036303	           -0.217296	            0.190120	           -0.736419	            0.138076	           -0.232311	            0.006130	           -0.833667	           -0.375655	           -0.020127	           -0.037608
            2.510500	           -0.090408	           -4.507446	            0.164327	           -0.233013	            0.005581	           -0.255695	           -0.568608	           -0.008503	           -0.209153	            0.051523	           -1.289036	            0.042309	           -0.232311	            0.006130	           -0.833667	           -0.431857	           -0.067460	           -0.075453
